<svg width="24" height="24" viewBox="0 0 24 24" fill="none" xmlns="http://www.w3.org/2000/svg">
<g clip-path="url(#clip0_2754_1003)">
<path d="M12.0039 7.33403C9.16461 7.33403 6.87444 9.63852 6.87444 12.4956C6.87444 15.3526 9.16461 17.6571 12.0039 17.6571C14.8432 17.6571 17.1334 15.3526 17.1334 12.4956C17.1334 9.63852 14.8432 7.33403 12.0039 7.33403ZM12.0039 15.8512C10.1691 15.8512 8.66908 14.3463 8.66908 12.4956C8.66908 10.6448 10.1646 9.13989 12.0039 9.13989C13.8432 9.13989 15.3387 10.6448 15.3387 12.4956C15.3387 14.3463 13.8387 15.8512 12.0039 15.8512V15.8512ZM18.5396 7.1229C18.5396 7.79223 18.0039 8.3268 17.3432 8.3268C16.678 8.3268 16.1467 7.78774 16.1467 7.1229C16.1467 6.45805 16.6825 5.91899 17.3432 5.91899C18.0039 5.91899 18.5396 6.45805 18.5396 7.1229ZM21.9369 8.34477C21.861 6.73208 21.495 5.30356 20.3209 4.12661C19.1512 2.94966 17.7316 2.5813 16.1289 2.50044C14.4771 2.4061 9.52622 2.4061 7.87444 2.50044C6.27622 2.57681 4.85658 2.94517 3.68248 4.12212C2.50837 5.29907 2.14676 6.72759 2.06641 8.34028C1.97266 10.0024 1.97266 14.9842 2.06641 16.6463C2.1423 18.259 2.50837 19.6875 3.68248 20.8645C4.85658 22.0414 6.27176 22.4098 7.87444 22.4907C9.52622 22.585 14.4771 22.585 16.1289 22.4907C17.7316 22.4143 19.1512 22.0459 20.3209 20.8645C21.4905 19.6875 21.8566 18.259 21.9369 16.6463C22.0307 14.9842 22.0307 10.0069 21.9369 8.34477V8.34477ZM19.803 18.4297C19.4548 19.3102 18.7807 19.9885 17.9012 20.3434C16.5843 20.869 13.4593 20.7477 12.0039 20.7477C10.5485 20.7477 7.41908 20.8645 6.10658 20.3434C5.23158 19.993 4.55748 19.3147 4.2048 18.4297C3.68248 17.1045 3.80301 13.96 3.80301 12.4956C3.80301 11.0311 3.68694 7.88208 4.2048 6.56138C4.55301 5.68091 5.22712 5.00259 6.10658 4.6477C7.42354 4.12212 10.5485 4.24341 12.0039 4.24341C13.4593 4.24341 16.5887 4.12661 17.9012 4.6477C18.7762 4.99809 19.4503 5.67641 19.803 6.56138C20.3253 7.88657 20.2048 11.0311 20.2048 12.4956C20.2048 13.96 20.3253 17.109 19.803 18.4297Z" fill="black"/>
</g>
<defs>
<clipPath id="clip0_2754_1003">
<rect width="20" height="23" fill="white" transform="translate(2 1)"/>
</clipPath>
</defs>
</svg>
