<svg width="24" height="24" viewBox="0 0 24 24" fill="none" xmlns="http://www.w3.org/2000/svg">
<path d="M20.7386 7.51894C20.7525 7.71436 20.7525 7.90983 20.7525 8.10525C20.7525 14.0659 16.2157 20.9339 7.92385 20.9339C5.36928 20.9339 2.9962 20.194 1 18.9098C1.36296 18.9517 1.71191 18.9656 2.08883 18.9656C4.19666 18.9656 6.13704 18.2537 7.68654 17.0393C5.7043 16.9974 4.04313 15.6992 3.47079 13.9123C3.75 13.9542 4.02917 13.9821 4.32234 13.9821C4.72715 13.9821 5.132 13.9263 5.50888 13.8286C3.4429 13.4098 1.89336 11.5951 1.89336 9.40347V9.34765C2.49359 9.68268 3.19162 9.89206 3.93141 9.91995C2.71695 9.11029 1.92129 7.72833 1.92129 6.16487C1.92129 5.32732 2.1446 4.55955 2.53549 3.8895C4.75504 6.62554 8.09135 8.41231 11.8324 8.60777C11.7626 8.27274 11.7207 7.92379 11.7207 7.5748C11.7207 5.09 13.7309 3.06592 16.2296 3.06592C17.5278 3.06592 18.7004 3.61033 19.524 4.48977C20.543 4.29435 21.5202 3.91743 22.3857 3.40095C22.0506 4.44792 21.3387 5.32736 20.4035 5.8857C21.3109 5.78803 22.1903 5.53671 22.9999 5.18776C22.3858 6.08112 21.618 6.87677 20.7386 7.51894V7.51894Z" fill="black"/>
</svg>
