<svg width="24" height="24" viewBox="0 0 24 24" fill="none" xmlns="http://www.w3.org/2000/svg">
<path d="M12.9688 2.25391C8.96094 2.25391 5 4.92578 5 9.25C5 12 6.54687 13.5625 7.48437 13.5625C7.87109 13.5625 8.09375 12.4844 8.09375 12.1797C8.09375 11.8164 7.16797 11.043 7.16797 9.53125C7.16797 6.39063 9.55859 4.16406 12.6523 4.16406C15.3125 4.16406 17.2812 5.67578 17.2812 8.45313C17.2812 10.5273 16.4492 14.418 13.7539 14.418C12.7813 14.418 11.9492 13.7148 11.9492 12.707C11.9492 11.2305 12.9805 9.80078 12.9805 8.27734C12.9805 5.69141 9.3125 6.16016 9.3125 9.28516C9.3125 9.94141 9.39453 10.668 9.6875 11.2656C9.14844 13.5859 8.04688 17.043 8.04688 19.4336C8.04688 20.1719 8.15234 20.8984 8.22266 21.6367C8.35547 21.7852 8.28906 21.7695 8.49219 21.6953C10.4609 19 10.3906 18.4727 11.2813 14.9453C11.7617 15.8594 13.0039 16.3516 13.9883 16.3516C18.1367 16.3516 20 12.3086 20 8.66406C20 4.78516 16.6484 2.25391 12.9688 2.25391Z" fill="black"/>
</svg>
